<svg xmlns="http://www.w3.org/2000/svg" xmlns:xlink="http://www.w3.org/1999/xlink" width="1000" zoomAndPan="magnify" viewBox="0 0 750 749.999995" height="1000" preserveAspectRatio="xMidYMid meet" version="1.0"><defs><clipPath id="7bcbb72840"><path d="M 15.605469 15.605469 L 734.105469 15.605469 L 734.105469 734.105469 L 15.605469 734.105469 Z M 15.605469 15.605469 " clip-rule="nonzero"/></clipPath><clipPath id="0b88e4a96c"><path d="M 48.804688 48.804688 L 701.304688 48.804688 L 701.304688 701.304688 L 48.804688 701.304688 Z M 48.804688 48.804688 " clip-rule="nonzero"/></clipPath><clipPath id="3c5f629404"><path d="M 33.519531 33.519531 L 716.769531 33.519531 L 716.769531 716.769531 L 33.519531 716.769531 Z M 33.519531 33.519531 " clip-rule="nonzero"/></clipPath><clipPath id="60be8a1b10"><path d="M 102.269531 102.269531 L 657.269531 102.269531 L 657.269531 657.269531 L 102.269531 657.269531 Z M 102.269531 102.269531 " clip-rule="nonzero"/></clipPath><clipPath id="d59a987b4b"><path d="M 152.546875 152.546875 L 597.296875 152.546875 L 597.296875 597.296875 L 152.546875 597.296875 Z M 152.546875 152.546875 " clip-rule="nonzero"/></clipPath></defs><g clip-path="url(#7bcbb72840)"><path fill="#9a3b3b" d="M 734.386719 374.996094 C 734.386719 380.878906 734.242188 386.753906 733.953125 392.628906 C 733.664062 398.503906 733.230469 404.367188 732.65625 410.222656 C 732.078125 416.074219 731.359375 421.910156 730.496094 427.730469 C 729.632812 433.546875 728.628906 439.339844 727.480469 445.109375 C 726.332031 450.878906 725.042969 456.613281 723.617188 462.320312 C 722.1875 468.027344 720.617188 473.691406 718.910156 479.320312 C 717.203125 484.949219 715.359375 490.53125 713.378906 496.070312 C 711.394531 501.609375 709.28125 507.09375 707.027344 512.527344 C 704.777344 517.960938 702.394531 523.339844 699.878906 528.65625 C 697.367188 533.972656 694.722656 539.222656 691.949219 544.410156 C 689.175781 549.597656 686.277344 554.714844 683.253906 559.757812 C 680.230469 564.804688 677.085938 569.773438 673.816406 574.664062 C 670.550781 579.554688 667.164062 584.359375 663.660156 589.085938 C 660.15625 593.808594 656.539062 598.445312 652.808594 602.992188 C 649.078125 607.539062 645.238281 611.988281 641.285156 616.347656 C 637.335938 620.707031 633.28125 624.964844 629.125 629.125 C 624.964844 633.28125 620.707031 637.335938 616.347656 641.285156 C 611.988281 645.238281 607.539062 649.078125 602.992188 652.808594 C 598.445312 656.539062 593.808594 660.15625 589.085938 663.660156 C 584.359375 667.164062 579.554688 670.550781 574.664062 673.816406 C 569.773438 677.085938 564.804688 680.230469 559.757812 683.253906 C 554.714844 686.277344 549.597656 689.175781 544.410156 691.949219 C 539.222656 694.722656 533.972656 697.367188 528.65625 699.882812 C 523.335938 702.394531 517.960938 704.777344 512.527344 707.027344 C 507.09375 709.28125 501.609375 711.394531 496.070312 713.378906 C 490.53125 715.359375 484.949219 717.203125 479.320312 718.910156 C 473.691406 720.617188 468.027344 722.1875 462.320312 723.617188 C 456.613281 725.042969 450.878906 726.332031 445.109375 727.480469 C 439.339844 728.628906 433.546875 729.632812 427.730469 730.496094 C 421.910156 731.359375 416.074219 732.078125 410.222656 732.65625 C 404.367188 733.230469 398.503906 733.664062 392.628906 733.953125 C 386.753906 734.242188 380.878906 734.386719 374.996094 734.386719 C 369.113281 734.386719 363.234375 734.242188 357.359375 733.953125 C 351.488281 733.664062 345.621094 733.230469 339.769531 732.65625 C 333.914062 732.078125 328.082031 731.359375 322.261719 730.496094 C 316.445312 729.632812 310.652344 728.628906 304.882812 727.480469 C 299.113281 726.332031 293.375 725.042969 287.671875 723.617188 C 281.964844 722.1875 276.296875 720.617188 270.671875 718.910156 C 265.042969 717.203125 259.457031 715.359375 253.921875 713.378906 C 248.382812 711.394531 242.898438 709.28125 237.460938 707.027344 C 232.027344 704.777344 226.652344 702.394531 221.335938 699.882812 C 216.019531 697.367188 210.765625 694.722656 205.578125 691.949219 C 200.394531 689.175781 195.277344 686.277344 190.230469 683.253906 C 185.1875 680.230469 180.21875 677.085938 175.328125 673.816406 C 170.4375 670.550781 165.632812 667.164062 160.90625 663.660156 C 156.183594 660.15625 151.546875 656.539062 147 652.808594 C 142.453125 649.078125 138 645.238281 133.644531 641.285156 C 129.285156 637.335938 125.027344 633.28125 120.867188 629.125 C 116.710938 624.964844 112.65625 620.707031 108.703125 616.347656 C 104.753906 611.988281 100.914062 607.539062 97.183594 602.992188 C 93.453125 598.445312 89.835938 593.808594 86.332031 589.085938 C 82.828125 584.359375 79.441406 579.554688 76.171875 574.664062 C 72.90625 569.773438 69.761719 564.804688 66.734375 559.757812 C 63.710938 554.714844 60.8125 549.597656 58.042969 544.410156 C 55.269531 539.222656 52.625 533.972656 50.109375 528.65625 C 47.59375 523.339844 45.210938 517.960938 42.960938 512.527344 C 40.710938 507.09375 38.59375 501.609375 36.613281 496.070312 C 34.632812 490.53125 32.789062 484.949219 31.082031 479.320312 C 29.371094 473.691406 27.804688 468.027344 26.375 462.320312 C 24.945312 456.613281 23.65625 450.878906 22.511719 445.109375 C 21.363281 439.339844 20.359375 433.546875 19.496094 427.730469 C 18.632812 421.910156 17.914062 416.074219 17.335938 410.222656 C 16.757812 404.367188 16.328125 398.503906 16.039062 392.628906 C 15.75 386.753906 15.605469 380.878906 15.605469 374.996094 C 15.605469 369.113281 15.75 363.234375 16.039062 357.359375 C 16.328125 351.488281 16.757812 345.621094 17.335938 339.769531 C 17.914062 333.914062 18.632812 328.082031 19.496094 322.261719 C 20.359375 316.445312 21.363281 310.652344 22.511719 304.882812 C 23.65625 299.113281 24.945312 293.375 26.375 287.671875 C 27.804688 281.964844 29.371094 276.296875 31.082031 270.671875 C 32.789062 265.042969 34.632812 259.457031 36.613281 253.921875 C 38.59375 248.382812 40.710938 242.898438 42.960938 237.460938 C 45.210938 232.027344 47.59375 226.652344 50.109375 221.335938 C 52.625 216.019531 55.269531 210.765625 58.042969 205.582031 C 60.8125 200.394531 63.710938 195.277344 66.734375 190.230469 C 69.761719 185.1875 72.90625 180.21875 76.171875 175.328125 C 79.441406 170.4375 82.828125 165.632812 86.332031 160.90625 C 89.835938 156.183594 93.453125 151.546875 97.183594 147 C 100.914062 142.453125 104.753906 138 108.703125 133.644531 C 112.65625 129.285156 116.710938 125.027344 120.867188 120.867188 C 125.027344 116.710938 129.285156 112.65625 133.644531 108.703125 C 138 104.753906 142.453125 100.914062 147 97.183594 C 151.546875 93.453125 156.183594 89.835938 160.90625 86.332031 C 165.632812 82.828125 170.4375 79.441406 175.328125 76.171875 C 180.21875 72.90625 185.1875 69.761719 190.230469 66.734375 C 195.277344 63.710938 200.394531 60.8125 205.582031 58.042969 C 210.765625 55.269531 216.019531 52.625 221.335938 50.109375 C 226.652344 47.597656 232.027344 45.214844 237.460938 42.960938 C 242.898438 40.710938 248.382812 38.59375 253.921875 36.613281 C 259.457031 34.632812 265.042969 32.789062 270.671875 31.082031 C 276.296875 29.371094 281.964844 27.804688 287.671875 26.375 C 293.375 24.945312 299.113281 23.65625 304.882812 22.511719 C 310.652344 21.363281 316.445312 20.359375 322.261719 19.496094 C 328.082031 18.632812 333.914062 17.914062 339.769531 17.335938 C 345.621094 16.757812 351.488281 16.328125 357.359375 16.039062 C 363.234375 15.75 369.113281 15.605469 374.996094 15.605469 C 380.878906 15.605469 386.753906 15.75 392.628906 16.039062 C 398.503906 16.328125 404.367188 16.757812 410.222656 17.335938 C 416.074219 17.914062 421.910156 18.632812 427.730469 19.496094 C 433.546875 20.359375 439.339844 21.363281 445.109375 22.511719 C 450.878906 23.65625 456.613281 24.945312 462.320312 26.375 C 468.027344 27.804688 473.691406 29.371094 479.320312 31.082031 C 484.949219 32.789062 490.53125 34.632812 496.070312 36.613281 C 501.609375 38.59375 507.09375 40.710938 512.527344 42.960938 C 517.960938 45.214844 523.339844 47.597656 528.65625 50.109375 C 533.972656 52.625 539.222656 55.269531 544.410156 58.042969 C 549.597656 60.8125 554.714844 63.710938 559.757812 66.734375 C 564.804688 69.761719 569.773438 72.90625 574.664062 76.171875 C 579.554688 79.441406 584.359375 82.828125 589.085938 86.332031 C 593.808594 89.835938 598.445312 93.453125 602.992188 97.183594 C 607.539062 100.914062 611.988281 104.753906 616.347656 108.703125 C 620.707031 112.65625 624.964844 116.710938 629.125 120.867188 C 633.28125 125.027344 637.335938 129.285156 641.285156 133.644531 C 645.238281 138 649.078125 142.453125 652.808594 147 C 656.539062 151.546875 660.15625 156.183594 663.660156 160.90625 C 667.164062 165.632812 670.550781 170.4375 673.816406 175.328125 C 677.085938 180.21875 680.230469 185.1875 683.253906 190.230469 C 686.277344 195.277344 689.175781 200.394531 691.949219 205.582031 C 694.722656 210.765625 697.367188 216.019531 699.878906 221.335938 C 702.394531 226.652344 704.777344 232.027344 707.027344 237.460938 C 709.28125 242.898438 711.394531 248.382812 713.378906 253.921875 C 715.359375 259.457031 717.203125 265.042969 718.910156 270.671875 C 720.617188 276.296875 722.1875 281.964844 723.617188 287.671875 C 725.046875 293.375 726.332031 299.113281 727.480469 304.882812 C 728.628906 310.652344 729.632812 316.445312 730.496094 322.261719 C 731.359375 328.082031 732.078125 333.914062 732.65625 339.769531 C 733.230469 345.621094 733.664062 351.488281 733.953125 357.359375 C 734.242188 363.234375 734.386719 369.113281 734.386719 374.996094 Z M 734.386719 374.996094 " fill-opacity="1" fill-rule="nonzero"/></g><g clip-path="url(#0b88e4a96c)"><path fill="#9a3b3b" d="M 701.1875 374.996094 C 701.1875 380.335938 701.058594 385.671875 700.796875 391.003906 C 700.535156 396.335938 700.140625 401.65625 699.617188 406.96875 C 699.09375 412.28125 698.441406 417.578125 697.65625 422.859375 C 696.875 428.140625 695.960938 433.398438 694.921875 438.632812 C 693.878906 443.871094 692.710938 449.078125 691.414062 454.253906 C 690.117188 459.433594 688.691406 464.578125 687.144531 469.683594 C 685.59375 474.792969 683.917969 479.863281 682.121094 484.886719 C 680.320312 489.914062 678.402344 494.894531 676.359375 499.824219 C 674.316406 504.757812 672.152344 509.636719 669.871094 514.460938 C 667.589844 519.289062 665.1875 524.054688 662.671875 528.761719 C 660.15625 533.46875 657.523438 538.113281 654.78125 542.691406 C 652.035156 547.273438 649.179688 551.78125 646.214844 556.21875 C 643.25 560.65625 640.175781 565.019531 636.996094 569.308594 C 633.816406 573.597656 630.53125 577.804688 627.144531 581.929688 C 623.761719 586.058594 620.273438 590.097656 616.6875 594.054688 C 613.105469 598.007812 609.425781 601.875 605.648438 605.648438 C 601.875 609.425781 598.007812 613.105469 594.054688 616.6875 C 590.097656 620.273438 586.058594 623.761719 581.929688 627.148438 C 577.804688 630.53125 573.597656 633.816406 569.308594 636.996094 C 565.019531 640.175781 560.65625 643.25 556.21875 646.214844 C 551.78125 649.179688 547.273438 652.035156 542.691406 654.78125 C 538.113281 657.523438 533.46875 660.15625 528.761719 662.671875 C 524.054688 665.1875 519.289062 667.589844 514.460938 669.871094 C 509.636719 672.152344 504.757812 674.316406 499.824219 676.359375 C 494.894531 678.402344 489.914062 680.320312 484.886719 682.121094 C 479.859375 683.917969 474.792969 685.59375 469.683594 687.144531 C 464.578125 688.691406 459.433594 690.117188 454.253906 691.414062 C 449.078125 692.710938 443.871094 693.878906 438.632812 694.921875 C 433.398438 695.960938 428.140625 696.875 422.859375 697.65625 C 417.578125 698.441406 412.28125 699.09375 406.96875 699.617188 C 401.65625 700.140625 396.335938 700.535156 391.003906 700.796875 C 385.671875 701.058594 380.335938 701.1875 374.996094 701.1875 C 369.660156 701.1875 364.324219 701.058594 358.992188 700.796875 C 353.660156 700.535156 348.335938 700.140625 343.023438 699.617188 C 337.710938 699.09375 332.414062 698.441406 327.136719 697.65625 C 321.855469 696.875 316.597656 695.960938 311.359375 694.921875 C 306.125 693.878906 300.917969 692.710938 295.738281 691.414062 C 290.5625 690.117188 285.417969 688.691406 280.308594 687.144531 C 275.199219 685.59375 270.132812 683.917969 265.105469 682.121094 C 260.082031 680.320312 255.101562 678.402344 250.167969 676.359375 C 245.238281 674.316406 240.359375 672.152344 235.53125 669.871094 C 230.707031 667.589844 225.941406 665.1875 221.230469 662.671875 C 216.523438 660.15625 211.878906 657.523438 207.300781 654.78125 C 202.722656 652.035156 198.214844 649.179688 193.773438 646.214844 C 189.335938 643.25 184.972656 640.175781 180.683594 636.996094 C 176.398438 633.816406 172.191406 630.53125 168.0625 627.148438 C 163.9375 623.761719 159.894531 620.273438 155.941406 616.6875 C 151.984375 613.105469 148.121094 609.425781 144.34375 605.648438 C 140.570312 601.875 136.890625 598.007812 133.304688 594.054688 C 129.71875 590.097656 126.234375 586.058594 122.847656 581.929688 C 119.460938 577.804688 116.179688 573.597656 112.996094 569.308594 C 109.816406 565.019531 106.746094 560.65625 103.777344 556.21875 C 100.8125 551.78125 97.957031 547.273438 95.214844 542.691406 C 92.46875 538.113281 89.839844 533.46875 87.320312 528.761719 C 84.804688 524.054688 82.40625 519.289062 80.125 514.460938 C 77.839844 509.636719 75.679688 504.757812 73.636719 499.824219 C 71.59375 494.894531 69.671875 489.914062 67.875 484.886719 C 66.074219 479.863281 64.402344 474.792969 62.851562 469.683594 C 61.300781 464.578125 59.878906 459.433594 58.582031 454.253906 C 57.285156 449.078125 56.113281 443.871094 55.074219 438.632812 C 54.03125 433.398438 53.121094 428.140625 52.335938 422.859375 C 51.554688 417.578125 50.898438 412.28125 50.375 406.96875 C 49.851562 401.65625 49.460938 396.335938 49.199219 391.003906 C 48.9375 385.671875 48.804688 380.335938 48.804688 374.996094 C 48.804688 369.660156 48.9375 364.324219 49.199219 358.992188 C 49.460938 353.660156 49.851562 348.335938 50.375 343.023438 C 50.898438 337.710938 51.554688 332.414062 52.335938 327.136719 C 53.121094 321.855469 54.03125 316.597656 55.074219 311.359375 C 56.113281 306.125 57.285156 300.917969 58.582031 295.738281 C 59.878906 290.5625 61.300781 285.417969 62.851562 280.308594 C 64.402344 275.199219 66.074219 270.132812 67.875 265.105469 C 69.671875 260.082031 71.59375 255.101562 73.636719 250.167969 C 75.679688 245.238281 77.839844 240.359375 80.125 235.53125 C 82.40625 230.707031 84.804688 225.941406 87.320312 221.230469 C 89.839844 216.523438 92.46875 211.878906 95.214844 207.300781 C 97.957031 202.722656 100.8125 198.214844 103.777344 193.773438 C 106.746094 189.335938 109.816406 184.972656 112.996094 180.683594 C 116.179688 176.398438 119.460938 172.191406 122.847656 168.0625 C 126.234375 163.9375 129.71875 159.894531 133.304688 155.941406 C 136.890625 151.984375 140.570312 148.121094 144.34375 144.34375 C 148.121094 140.570312 151.984375 136.890625 155.941406 133.304688 C 159.894531 129.71875 163.9375 126.234375 168.0625 122.847656 C 172.191406 119.460938 176.398438 116.179688 180.683594 112.996094 C 184.972656 109.816406 189.335938 106.746094 193.773438 103.777344 C 198.214844 100.8125 202.722656 97.957031 207.300781 95.214844 C 211.878906 92.46875 216.523438 89.839844 221.230469 87.320312 C 225.941406 84.804688 230.707031 82.40625 235.53125 80.125 C 240.359375 77.839844 245.238281 75.679688 250.167969 73.636719 C 255.101562 71.59375 260.082031 69.671875 265.105469 67.875 C 270.132812 66.074219 275.199219 64.402344 280.308594 62.851562 C 285.417969 61.300781 290.5625 59.878906 295.738281 58.582031 C 300.917969 57.285156 306.125 56.113281 311.359375 55.074219 C 316.597656 54.03125 321.855469 53.121094 327.136719 52.335938 C 332.414062 51.554688 337.710938 50.898438 343.023438 50.375 C 348.335938 49.851562 353.660156 49.460938 358.992188 49.199219 C 364.324219 48.9375 369.660156 48.804688 374.996094 48.804688 C 380.335938 48.804688 385.671875 48.9375 391.003906 49.199219 C 396.335938 49.460938 401.65625 49.851562 406.96875 50.375 C 412.28125 50.898438 417.578125 51.554688 422.859375 52.335938 C 428.140625 53.121094 433.398438 54.03125 438.632812 55.074219 C 443.871094 56.113281 449.078125 57.285156 454.253906 58.582031 C 459.433594 59.878906 464.578125 61.300781 469.683594 62.851562 C 474.792969 64.402344 479.859375 66.074219 484.886719 67.875 C 489.914062 69.671875 494.894531 71.59375 499.824219 73.636719 C 504.757812 75.679688 509.636719 77.839844 514.460938 80.125 C 519.289062 82.40625 524.054688 84.804688 528.761719 87.320312 C 533.46875 89.839844 538.113281 92.46875 542.691406 95.214844 C 547.273438 97.957031 551.78125 100.8125 556.21875 103.777344 C 560.65625 106.746094 565.019531 109.816406 569.308594 112.996094 C 573.597656 116.179688 577.804688 119.460938 581.929688 122.847656 C 586.058594 126.234375 590.097656 129.71875 594.054688 133.304688 C 598.007812 136.890625 601.875 140.570312 605.648438 144.34375 C 609.425781 148.121094 613.105469 151.984375 616.6875 155.941406 C 620.273438 159.894531 623.761719 163.9375 627.144531 168.0625 C 630.53125 172.191406 633.816406 176.398438 636.996094 180.683594 C 640.175781 184.972656 643.25 189.335938 646.214844 193.773438 C 649.179688 198.214844 652.035156 202.722656 654.78125 207.300781 C 657.523438 211.878906 660.15625 216.523438 662.671875 221.230469 C 665.1875 225.941406 667.589844 230.707031 669.871094 235.53125 C 672.152344 240.359375 674.316406 245.238281 676.359375 250.167969 C 678.402344 255.101562 680.320312 260.082031 682.121094 265.105469 C 683.917969 270.132812 685.59375 275.199219 687.144531 280.308594 C 688.691406 285.417969 690.117188 290.5625 691.414062 295.738281 C 692.710938 300.917969 693.878906 306.125 694.921875 311.359375 C 695.960938 316.597656 696.875 321.855469 697.65625 327.136719 C 698.441406 332.414062 699.09375 337.710938 699.617188 343.023438 C 700.140625 348.335938 700.535156 353.660156 700.796875 358.992188 C 701.058594 364.324219 701.1875 369.660156 701.1875 374.996094 Z M 701.1875 374.996094 " fill-opacity="1" fill-rule="nonzero"/></g><g clip-path="url(#3c5f629404)"><path fill="#692c2c" d="M 375.066406 716.476562 C 283.894531 716.476562 198.03125 680.960938 133.535156 616.460938 C 69.035156 551.960938 33.519531 466.234375 33.519531 375.066406 C 33.519531 283.894531 69.035156 198.03125 133.535156 133.535156 C 198.03125 69.035156 283.761719 33.519531 375.066406 33.519531 C 466.371094 33.519531 551.960938 69.035156 616.460938 133.535156 C 680.960938 198.03125 716.476562 283.757812 716.476562 375.066406 C 716.476562 466.371094 680.960938 551.960938 616.460938 616.460938 C 551.960938 680.960938 466.234375 716.476562 375.066406 716.476562 Z M 375.066406 53.929688 C 289.339844 53.929688 208.648438 87.269531 147.957031 147.957031 C 87.269531 208.648438 53.929688 289.203125 53.929688 375.066406 C 53.929688 460.929688 87.269531 541.484375 147.957031 602.171875 C 208.648438 662.863281 289.203125 696.199219 375.066406 696.199219 C 460.929688 696.199219 541.484375 662.863281 602.171875 602.171875 C 662.863281 541.484375 696.199219 460.929688 696.199219 375.066406 C 696.199219 289.203125 662.863281 208.648438 602.171875 147.957031 C 541.347656 87.269531 460.792969 53.929688 375.066406 53.929688 Z M 375.066406 53.929688 " fill-opacity="1" fill-rule="nonzero"/></g><path fill="#692c2c" d="M 368.261719 673.886719 L 367.445312 673.886719 C 364.453125 673.75 362.136719 671.300781 362.273438 668.441406 C 362.410156 665.585938 364.722656 663.269531 367.582031 663.269531 C 367.582031 663.269531 367.71875 663.269531 367.71875 663.269531 L 368.398438 663.269531 C 371.390625 663.40625 373.703125 665.855469 373.570312 668.714844 C 373.570312 671.570312 371.253906 673.886719 368.261719 673.886719 Z M 395.203125 673.203125 C 392.347656 673.203125 390.035156 671.027344 389.898438 668.167969 C 389.761719 665.175781 391.9375 662.726562 394.933594 662.453125 L 395.476562 662.453125 C 398.46875 662.183594 401.054688 664.496094 401.191406 667.351562 C 401.464844 670.347656 399.152344 672.933594 396.292969 673.070312 L 395.613281 673.070312 C 395.339844 673.203125 395.203125 673.203125 395.203125 673.203125 Z M 340.910156 671.980469 C 340.773438 671.980469 340.503906 671.980469 340.230469 671.980469 L 339.550781 671.84375 C 336.554688 671.433594 334.515625 668.851562 334.921875 665.855469 C 335.332031 662.863281 337.917969 660.820312 340.910156 661.230469 L 341.589844 661.367188 C 344.585938 661.636719 346.625 664.359375 346.355469 667.351562 C 345.808594 669.9375 343.496094 671.980469 340.910156 671.980469 Z M 422.417969 670.074219 C 419.835938 670.074219 417.519531 668.167969 417.113281 665.585938 C 416.566406 662.726562 418.609375 659.871094 421.601562 659.460938 L 422.285156 659.324219 C 425.140625 658.917969 428 660.820312 428.40625 663.816406 C 428.816406 666.808594 426.910156 669.53125 423.917969 669.9375 L 423.234375 670.074219 C 423.101562 670.074219 422.828125 670.074219 422.417969 670.074219 Z M 313.695312 667.488281 C 313.289062 667.488281 313.015625 667.488281 312.609375 667.351562 L 311.925781 667.21875 C 309.070312 666.535156 307.164062 663.679688 307.84375 660.820312 C 308.523438 657.964844 311.382812 656.058594 314.242188 656.738281 L 314.921875 656.875 C 317.777344 657.554688 319.683594 660.277344 319.003906 663.269531 C 318.457031 665.855469 316.144531 667.488281 313.695312 667.488281 Z M 449.363281 664.496094 C 446.914062 664.496094 444.734375 662.863281 444.191406 660.414062 C 443.511719 657.554688 445.144531 654.5625 448.136719 653.882812 L 448.683594 653.746094 C 451.539062 652.929688 454.53125 654.699219 455.214844 657.554688 C 456.03125 660.414062 454.261719 663.40625 451.402344 664.085938 L 450.722656 664.222656 C 450.316406 664.359375 449.769531 664.496094 449.363281 664.496094 Z M 287.160156 660.550781 C 286.617188 660.550781 286.074219 660.414062 285.527344 660.277344 L 284.984375 660.140625 C 282.125 659.1875 280.492188 656.195312 281.445312 653.335938 C 282.398438 650.480469 285.257812 648.984375 288.113281 649.800781 L 288.792969 649.9375 C 291.652344 650.753906 293.148438 653.882812 292.332031 656.601562 C 291.515625 659.054688 289.339844 660.550781 287.160156 660.550781 Z M 475.625 656.195312 C 473.449219 656.195312 471.40625 654.835938 470.589844 652.65625 C 469.636719 649.9375 470.996094 646.804688 473.855469 645.855469 L 474.398438 645.582031 C 477.121094 644.628906 480.25 645.988281 481.339844 648.710938 C 482.292969 651.433594 480.929688 654.5625 478.210938 655.652344 L 477.53125 655.921875 C 476.847656 656.195312 476.304688 656.195312 475.625 656.195312 Z M 261.308594 651.160156 C 260.628906 651.160156 259.945312 651.023438 259.265625 650.753906 L 258.585938 650.480469 C 255.863281 649.253906 254.640625 646.125 255.726562 643.402344 C 256.953125 640.683594 260.082031 639.457031 262.804688 640.546875 L 263.347656 640.820312 C 266.070312 641.90625 267.429688 645.035156 266.207031 647.894531 C 265.390625 649.800781 263.347656 651.160156 261.308594 651.160156 Z M 501.070312 645.582031 C 499.03125 645.582031 497.125 644.492188 496.308594 642.585938 C 495.082031 639.867188 496.171875 636.738281 498.757812 635.375 L 499.4375 635.105469 C 502.160156 633.878906 505.289062 634.96875 506.648438 637.6875 C 507.875 640.410156 506.785156 643.539062 504.0625 644.765625 L 503.519531 645.035156 C 502.566406 645.445312 501.75 645.582031 501.070312 645.582031 Z M 236.40625 639.1875 C 235.589844 639.1875 234.636719 638.914062 233.820312 638.503906 L 233.277344 638.234375 C 230.691406 636.871094 229.738281 633.605469 231.097656 631.019531 C 232.460938 628.4375 235.726562 627.484375 238.3125 628.84375 L 238.855469 629.117188 C 241.441406 630.476562 242.394531 633.742188 241.03125 636.328125 C 240.214844 638.234375 238.3125 639.1875 236.40625 639.1875 Z M 525.292969 632.65625 C 523.523438 632.65625 521.753906 631.703125 520.664062 630.070312 C 519.167969 627.484375 519.984375 624.21875 522.433594 622.722656 L 522.976562 622.3125 C 525.5625 620.816406 528.828125 621.632812 530.328125 624.21875 C 531.824219 626.804688 531.007812 630.070312 528.421875 631.566406 L 527.878906 631.839844 C 527.195312 632.382812 526.246094 632.65625 525.292969 632.65625 Z M 212.730469 625.035156 C 211.777344 625.035156 210.6875 624.761719 209.734375 624.082031 L 209.191406 623.671875 C 206.742188 622.039062 206.0625 618.773438 207.695312 616.1875 C 209.328125 613.738281 212.59375 613.058594 215.179688 614.691406 L 215.722656 615.101562 C 218.171875 616.734375 218.851562 620 217.21875 622.585938 C 216.265625 624.21875 214.496094 625.035156 212.730469 625.035156 Z M 548.289062 617.414062 C 546.65625 617.414062 545.023438 616.597656 543.933594 615.238281 C 542.164062 612.921875 542.710938 609.523438 545.023438 607.753906 L 545.566406 607.34375 C 548.015625 605.574219 551.28125 606.121094 553.050781 608.433594 C 554.820312 610.882812 554.277344 614.148438 551.960938 615.917969 L 551.417969 616.324219 C 550.464844 617.140625 549.375 617.414062 548.289062 617.414062 Z M 190.550781 608.839844 C 189.324219 608.839844 188.097656 608.433594 187.148438 607.617188 L 186.601562 607.207031 C 184.289062 605.304688 183.882812 602.039062 185.785156 599.722656 C 187.691406 597.410156 190.957031 597.003906 193.269531 598.90625 L 193.816406 599.316406 C 196.128906 601.222656 196.398438 604.621094 194.632812 606.800781 C 193.679688 608.160156 192.183594 608.839844 190.550781 608.839844 Z M 569.652344 600.132812 C 568.15625 600.132812 566.660156 599.589844 565.707031 598.363281 C 563.800781 596.1875 563.9375 592.785156 566.113281 590.878906 L 566.660156 590.472656 C 568.835938 588.429688 572.238281 588.703125 574.277344 590.878906 C 576.320312 593.058594 576.046875 596.457031 573.871094 598.5 L 573.460938 598.90625 C 572.238281 599.722656 570.875 600.132812 569.652344 600.132812 Z M 170 590.472656 C 168.640625 590.472656 167.28125 589.925781 166.328125 588.972656 L 165.785156 588.429688 C 163.605469 586.390625 163.605469 582.988281 165.785156 580.808594 C 167.824219 578.632812 171.226562 578.632812 173.402344 580.808594 L 173.8125 581.21875 C 175.988281 583.257812 175.988281 586.660156 173.949219 588.839844 C 172.859375 590.0625 171.363281 590.472656 170 590.472656 Z M 589.382812 580.945312 C 588.023438 580.945312 586.796875 580.539062 585.707031 579.449219 C 583.53125 577.40625 583.394531 574.007812 585.4375 571.828125 L 585.84375 571.285156 C 587.886719 569.109375 591.289062 568.972656 593.464844 571.011719 C 595.640625 573.054688 595.777344 576.457031 593.738281 578.632812 L 593.328125 579.039062 C 592.242188 580.402344 590.742188 580.945312 589.382812 580.945312 Z M 151.222656 570.46875 C 149.726562 570.46875 148.230469 569.789062 147.140625 568.5625 L 146.734375 568.019531 C 144.828125 565.707031 145.101562 562.441406 147.414062 560.398438 C 149.726562 558.492188 152.992188 558.765625 155.035156 561.078125 L 155.441406 561.625 C 157.347656 563.9375 157.074219 567.203125 154.761719 569.242188 C 153.671875 570.058594 152.449219 570.46875 151.222656 570.46875 Z M 607.207031 559.992188 C 606.121094 559.992188 604.894531 559.582031 603.941406 558.902344 C 601.628906 557.132812 601.085938 553.730469 602.988281 551.417969 L 603.398438 550.875 C 605.167969 548.558594 608.570312 548.152344 610.882812 549.921875 C 613.195312 551.691406 613.605469 555.09375 611.835938 557.40625 L 611.425781 557.949219 C 610.472656 559.308594 608.839844 559.992188 607.207031 559.992188 Z M 134.484375 548.695312 C 132.851562 548.695312 131.085938 547.878906 130.132812 546.382812 L 129.722656 545.839844 C 128.089844 543.390625 128.636719 540.125 131.085938 538.355469 C 133.535156 536.722656 136.800781 537.265625 138.570312 539.714844 L 138.976562 540.261719 C 140.609375 542.710938 140.066406 545.976562 137.617188 547.742188 C 136.527344 548.289062 135.4375 548.695312 134.484375 548.695312 Z M 622.992188 537.539062 C 622.039062 537.539062 621.089844 537.265625 620.136719 536.722656 C 617.6875 535.089844 616.871094 531.824219 618.503906 529.375 L 618.910156 528.828125 C 620.542969 526.378906 623.808594 525.5625 626.257812 527.195312 C 628.707031 528.828125 629.523438 532.09375 627.890625 534.542969 L 627.484375 535.089844 C 626.53125 536.585938 624.761719 537.539062 622.992188 537.539062 Z M 119.652344 525.429688 C 117.75 525.429688 115.980469 524.476562 115.027344 522.707031 L 114.753906 522.160156 C 113.257812 519.578125 114.210938 516.3125 116.796875 514.8125 C 119.382812 513.316406 122.648438 514.269531 124.144531 516.855469 L 124.417969 517.398438 C 125.914062 519.984375 124.960938 523.25 122.375 524.746094 C 121.558594 525.15625 120.605469 525.429688 119.652344 525.429688 Z M 636.738281 513.589844 C 635.921875 513.589844 635.105469 513.453125 634.289062 513.046875 C 631.703125 511.683594 630.613281 508.417969 631.972656 505.832031 L 632.246094 505.289062 C 633.605469 502.703125 636.871094 501.613281 639.457031 502.976562 C 642.042969 504.335938 643.132812 507.601562 641.769531 510.1875 L 641.5 510.730469 C 640.546875 512.5 638.640625 513.589844 636.738281 513.589844 Z M 107.269531 500.933594 C 105.230469 500.933594 103.324219 499.710938 102.371094 497.804688 L 102.101562 497.261719 C 100.875 494.539062 102.101562 491.410156 104.820312 490.183594 C 107.542969 488.960938 110.671875 490.183594 111.898438 492.90625 L 112.171875 493.449219 C 113.394531 496.171875 112.171875 499.300781 109.449219 500.527344 C 108.769531 500.796875 107.953125 500.933594 107.269531 500.933594 Z M 648.03125 488.550781 C 647.351562 488.550781 646.671875 488.414062 646.125 488.144531 C 643.402344 487.054688 642.042969 483.925781 643.132812 481.203125 L 643.402344 480.523438 C 644.492188 477.800781 647.621094 476.441406 650.34375 477.53125 C 653.066406 478.617188 654.425781 481.746094 653.335938 484.46875 L 653.066406 485.148438 C 652.113281 487.191406 650.207031 488.550781 648.03125 488.550781 Z M 97.066406 475.351562 C 94.886719 475.351562 92.710938 473.992188 92.03125 471.679688 L 91.757812 470.996094 C 90.804688 468.140625 92.304688 465.148438 95.160156 464.195312 C 98.019531 463.242188 101.011719 464.738281 101.964844 467.597656 L 102.238281 468.277344 C 103.1875 471.132812 101.691406 474.128906 98.972656 475.082031 C 98.289062 475.214844 97.746094 475.351562 97.066406 475.351562 Z M 657.011719 462.5625 C 656.46875 462.5625 656.058594 462.425781 655.515625 462.289062 C 652.65625 461.472656 651.023438 458.480469 651.839844 455.621094 L 651.976562 454.941406 C 652.792969 452.082031 655.785156 450.449219 658.644531 451.265625 C 661.503906 452.082031 663.136719 455.078125 662.320312 457.933594 L 662.183594 458.613281 C 661.367188 460.929688 659.324219 462.5625 657.011719 462.5625 Z M 89.445312 448.816406 C 86.996094 448.816406 84.820312 447.183594 84.273438 444.734375 L 84.140625 444.054688 C 83.457031 441.199219 85.226562 438.339844 88.085938 437.660156 C 90.941406 436.980469 93.800781 438.75 94.480469 441.605469 L 94.617188 442.285156 C 95.296875 445.144531 93.527344 448 90.671875 448.683594 C 90.261719 448.816406 89.855469 448.816406 89.445312 448.816406 Z M 663.40625 435.753906 C 663.136719 435.753906 662.726562 435.753906 662.320312 435.617188 C 659.460938 435.074219 657.554688 432.21875 658.101562 429.359375 L 658.234375 428.679688 C 658.78125 425.820312 661.636719 423.917969 664.496094 424.460938 C 667.351562 425.003906 669.257812 427.863281 668.714844 430.71875 L 668.578125 431.402344 C 668.167969 433.984375 665.855469 435.753906 663.40625 435.753906 Z M 84.273438 421.875 C 81.6875 421.875 79.375 419.96875 78.96875 417.25 L 78.832031 416.566406 C 78.421875 413.574219 80.464844 410.988281 83.457031 410.582031 C 86.453125 410.171875 89.039062 412.214844 89.445312 415.207031 L 89.582031 415.886719 C 89.988281 418.882812 87.949219 421.46875 85.089844 422.011719 C 84.820312 421.875 84.546875 421.875 84.273438 421.875 Z M 667.21875 408.539062 C 667.082031 408.539062 666.808594 408.539062 666.671875 408.539062 C 663.679688 408.269531 661.503906 405.683594 661.910156 402.6875 L 661.910156 402.007812 C 662.183594 399.015625 664.769531 396.835938 667.761719 397.246094 C 670.753906 397.519531 672.933594 400.101562 672.523438 403.097656 L 672.523438 403.777344 C 672.386719 406.5 669.9375 408.539062 667.21875 408.539062 Z M 81.824219 394.523438 C 78.96875 394.523438 76.65625 392.347656 76.519531 389.351562 L 76.519531 388.671875 C 76.382812 385.679688 78.695312 383.230469 81.554688 383.09375 C 84.546875 382.957031 86.996094 385.269531 87.132812 388.128906 L 87.132812 388.808594 C 87.269531 391.804688 84.957031 394.253906 82.097656 394.386719 C 81.960938 394.523438 81.824219 394.523438 81.824219 394.523438 Z M 668.578125 380.371094 C 665.585938 380.371094 663 378.605469 663 375.609375 L 663 375.066406 C 663 375.066406 663 374.929688 663 374.929688 L 663 374.25 C 663 371.253906 665.449219 368.941406 668.441406 368.941406 C 671.4375 368.941406 673.886719 371.390625 673.886719 374.25 L 673.886719 374.792969 C 673.886719 374.792969 673.886719 374.929688 673.886719 374.929688 L 673.886719 375.609375 C 673.886719 378.605469 671.570312 380.371094 668.578125 380.371094 Z M 81.6875 366.902344 C 81.554688 366.902344 81.554688 366.902344 81.417969 366.902344 C 78.421875 366.765625 76.109375 364.316406 76.246094 361.320312 L 76.246094 360.640625 C 76.382812 357.648438 78.96875 355.472656 81.824219 355.605469 C 84.820312 355.742188 87.132812 358.191406 86.859375 361.1875 L 86.859375 361.867188 C 86.996094 364.722656 84.546875 366.902344 81.6875 366.902344 Z M 667.351562 352.886719 C 664.632812 352.886719 662.320312 350.84375 662.046875 347.988281 L 662.046875 347.304688 C 661.773438 344.3125 663.953125 341.726562 666.808594 341.457031 C 669.800781 341.183594 672.386719 343.359375 672.660156 346.21875 L 672.660156 346.898438 C 672.933594 349.890625 670.753906 352.476562 667.761719 352.75 C 667.625 352.886719 667.488281 352.886719 667.351562 352.886719 Z M 84.273438 339.550781 C 84.003906 339.550781 83.730469 339.550781 83.59375 339.550781 C 80.601562 339.140625 78.558594 336.421875 78.96875 333.5625 L 79.105469 332.882812 C 79.511719 329.890625 82.234375 327.847656 85.226562 328.390625 C 88.222656 328.800781 90.261719 331.523438 89.71875 334.515625 L 89.582031 335.195312 C 89.171875 337.644531 86.859375 339.550781 84.273438 339.550781 Z M 663.542969 325.671875 C 660.957031 325.671875 658.78125 323.902344 658.234375 321.316406 L 658.101562 320.636719 C 657.554688 317.777344 659.460938 314.921875 662.320312 314.375 C 665.175781 313.832031 668.035156 315.738281 668.578125 318.59375 L 668.714844 319.273438 C 669.257812 322.132812 667.351562 324.992188 664.496094 325.535156 C 664.085938 325.671875 663.816406 325.671875 663.542969 325.671875 Z M 89.308594 312.472656 C 88.902344 312.472656 88.492188 312.472656 88.085938 312.335938 C 85.226562 311.65625 83.457031 308.796875 84.140625 305.941406 L 84.273438 305.257812 C 84.957031 302.402344 87.8125 300.632812 90.671875 301.3125 C 93.527344 301.992188 95.296875 304.851562 94.617188 307.707031 L 94.480469 308.390625 C 93.9375 310.839844 91.757812 312.472656 89.308594 312.472656 Z M 657.148438 298.863281 C 654.835938 298.863281 652.65625 297.367188 651.976562 294.917969 L 651.839844 294.238281 C 651.023438 291.378906 652.65625 288.386719 655.515625 287.570312 C 658.371094 286.753906 661.367188 288.386719 662.183594 291.242188 L 662.320312 291.925781 C 663.136719 294.78125 661.503906 297.777344 658.644531 298.59375 C 658.101562 298.863281 657.554688 298.863281 657.148438 298.863281 Z M 96.929688 286.074219 C 96.386719 286.074219 95.839844 285.9375 95.160156 285.800781 C 92.304688 284.847656 90.804688 281.855469 91.757812 278.996094 L 92.03125 278.453125 C 92.984375 275.59375 96.113281 274.097656 98.835938 275.050781 C 101.691406 276.003906 103.1875 278.996094 102.238281 281.855469 L 101.964844 282.535156 C 101.285156 284.710938 99.105469 286.074219 96.929688 286.074219 Z M 648.304688 272.875 C 646.125 272.875 644.085938 271.511719 643.269531 269.472656 L 642.996094 268.925781 C 641.90625 266.207031 643.269531 263.078125 645.988281 261.988281 C 648.710938 260.898438 651.839844 262.261719 652.929688 264.980469 L 653.203125 265.660156 C 654.289062 268.382812 652.929688 271.511719 650.207031 272.601562 C 649.527344 272.738281 648.984375 272.875 648.304688 272.875 Z M 107 260.492188 C 106.320312 260.492188 105.503906 260.355469 104.820312 260.082031 C 102.101562 258.859375 100.875 255.726562 102.101562 253.007812 L 102.371094 252.328125 C 103.597656 249.605469 106.726562 248.378906 109.449219 249.605469 C 112.171875 250.828125 113.394531 253.960938 112.171875 256.679688 L 111.898438 257.226562 C 110.945312 259.265625 109.039062 260.492188 107 260.492188 Z M 637.007812 247.699219 C 635.105469 247.699219 633.199219 246.613281 632.246094 244.707031 L 631.972656 244.164062 C 630.613281 241.578125 631.703125 238.3125 634.289062 236.949219 C 636.871094 235.589844 640.136719 236.679688 641.5 239.261719 L 641.769531 239.808594 C 643.132812 242.394531 642.042969 245.660156 639.457031 247.019531 C 638.640625 247.5625 637.824219 247.699219 637.007812 247.699219 Z M 119.382812 235.863281 C 118.429688 235.863281 117.613281 235.589844 116.796875 235.179688 C 114.210938 233.683594 113.257812 230.417969 114.753906 227.832031 L 115.027344 227.289062 C 116.523438 224.703125 119.789062 223.886719 122.375 225.246094 C 124.960938 226.746094 125.777344 230.011719 124.417969 232.597656 L 124.144531 233.140625 C 123.054688 234.910156 121.285156 235.863281 119.382812 235.863281 Z M 623.402344 223.75 C 621.632812 223.75 619.863281 222.796875 618.910156 221.300781 L 618.640625 220.757812 C 617.003906 218.308594 617.820312 214.90625 620.273438 213.410156 C 622.722656 211.777344 626.121094 212.59375 627.621094 215.042969 L 628.027344 215.585938 C 629.660156 218.035156 628.84375 221.4375 626.394531 222.933594 C 625.304688 223.613281 624.355469 223.75 623.402344 223.75 Z M 134.078125 212.59375 C 132.988281 212.59375 131.902344 212.320312 131.085938 211.640625 C 128.636719 210.007812 128.089844 206.605469 129.722656 204.15625 L 130.132812 203.613281 C 131.765625 201.164062 135.167969 200.617188 137.617188 202.25 C 140.066406 204.019531 140.609375 207.285156 138.976562 209.734375 L 138.570312 210.28125 C 137.480469 211.777344 135.710938 212.59375 134.078125 212.59375 Z M 607.617188 201.296875 C 605.984375 201.296875 604.351562 200.617188 603.398438 199.257812 L 602.988281 198.714844 C 601.222656 196.398438 601.628906 193 603.941406 191.230469 C 606.257812 189.460938 609.65625 189.867188 611.425781 192.183594 L 611.835938 192.726562 C 613.605469 195.039062 613.195312 198.441406 610.882812 200.210938 C 609.929688 200.890625 608.839844 201.296875 607.617188 201.296875 Z M 150.816406 190.820312 C 149.589844 190.820312 148.367188 190.414062 147.414062 189.597656 C 145.101562 187.691406 144.828125 184.289062 146.734375 182.113281 L 147.140625 181.566406 C 149.046875 179.253906 152.449219 179.117188 154.761719 181.023438 C 157.074219 182.929688 157.210938 186.332031 155.304688 188.644531 L 154.898438 189.1875 C 153.945312 190.140625 152.3125 190.820312 150.816406 190.820312 Z M 589.789062 180.34375 C 588.292969 180.34375 586.933594 179.800781 585.84375 178.574219 L 585.4375 178.167969 C 583.394531 175.988281 583.53125 172.585938 585.707031 170.546875 C 587.886719 168.503906 591.289062 168.640625 593.328125 170.816406 L 593.875 171.363281 C 595.914062 173.539062 595.777344 176.941406 593.601562 178.984375 C 592.511719 179.800781 591.152344 180.34375 589.789062 180.34375 Z M 169.59375 170.683594 C 168.234375 170.683594 166.871094 170.136719 165.785156 169.050781 C 163.742188 166.871094 163.742188 163.605469 165.917969 161.429688 L 166.464844 160.882812 C 168.640625 158.84375 172.042969 158.84375 174.082031 161.019531 C 176.125 163.199219 176.125 166.601562 173.949219 168.640625 L 173.539062 169.050781 C 172.316406 170.136719 170.953125 170.683594 169.59375 170.683594 Z M 570.195312 161.019531 C 568.972656 161.019531 567.609375 160.613281 566.660156 159.660156 L 566.25 159.25 C 564.074219 157.347656 563.800781 153.945312 565.84375 151.632812 C 567.746094 149.453125 571.148438 149.183594 573.460938 151.222656 L 574.007812 151.632812 C 576.183594 153.671875 576.457031 156.9375 574.414062 159.25 C 573.054688 160.476562 571.691406 161.019531 570.195312 161.019531 Z M 190.140625 152.3125 C 188.644531 152.3125 187.011719 151.632812 185.921875 150.269531 C 184.015625 147.957031 184.425781 144.554688 186.738281 142.785156 L 187.28125 142.378906 C 189.597656 140.472656 193 140.882812 194.765625 143.195312 C 196.671875 145.507812 196.265625 148.910156 193.949219 150.679688 L 193.40625 151.085938 C 192.453125 151.902344 191.367188 152.3125 190.140625 152.3125 Z M 548.832031 143.738281 C 547.742188 143.738281 546.65625 143.46875 545.703125 142.652344 L 545.160156 142.242188 C 542.710938 140.472656 542.300781 137.207031 543.933594 134.757812 C 545.703125 132.308594 549.105469 131.902344 551.417969 133.535156 L 551.960938 133.941406 C 554.410156 135.710938 554.820312 139.113281 553.050781 141.425781 C 552.097656 142.921875 550.464844 143.738281 548.832031 143.738281 Z M 212.320312 135.984375 C 210.550781 135.984375 208.917969 135.167969 207.832031 133.535156 C 206.199219 131.085938 206.878906 127.683594 209.328125 126.050781 L 209.871094 125.640625 C 212.320312 124.007812 215.722656 124.6875 217.355469 127.136719 C 218.988281 129.585938 218.308594 132.988281 215.859375 134.621094 L 215.3125 135.03125 C 214.363281 135.710938 213.273438 135.984375 212.320312 135.984375 Z M 525.835938 128.5 C 524.882812 128.5 523.929688 128.226562 523.113281 127.683594 L 522.570312 127.273438 C 519.984375 125.777344 519.167969 122.511719 520.664062 119.925781 C 522.160156 117.339844 525.429688 116.523438 528.011719 118.019531 L 528.558594 118.429688 C 531.144531 119.925781 531.960938 123.191406 530.460938 125.777344 C 529.511719 127.546875 527.742188 128.5 525.835938 128.5 Z M 235.863281 121.832031 C 233.957031 121.832031 232.050781 120.742188 231.097656 118.972656 C 229.738281 116.386719 230.691406 113.121094 233.277344 111.761719 L 233.820312 111.488281 C 236.40625 110.128906 239.671875 111.082031 241.03125 113.667969 C 242.394531 116.253906 241.441406 119.519531 238.855469 120.878906 L 238.3125 121.152344 C 237.628906 121.558594 236.679688 121.832031 235.863281 121.832031 Z M 501.613281 115.4375 C 500.796875 115.4375 500.117188 115.300781 499.300781 114.890625 L 498.757812 114.621094 C 496.035156 113.394531 494.945312 110.128906 496.171875 107.40625 C 497.394531 104.6875 500.664062 103.597656 503.382812 104.820312 L 503.929688 105.09375 C 506.648438 106.320312 507.738281 109.585938 506.511719 112.304688 C 505.5625 114.347656 503.65625 115.4375 501.613281 115.4375 Z M 260.628906 109.855469 C 258.585938 109.855469 256.542969 108.632812 255.726562 106.589844 C 254.640625 103.871094 255.863281 100.738281 258.585938 99.515625 L 259.265625 99.242188 C 261.988281 98.15625 265.117188 99.378906 266.34375 102.101562 C 267.429688 104.820312 266.207031 107.953125 263.484375 109.175781 L 262.941406 109.449219 C 261.988281 109.722656 261.308594 109.855469 260.628906 109.855469 Z M 476.304688 104.6875 C 475.761719 104.6875 475.082031 104.550781 474.535156 104.414062 L 473.855469 104.140625 C 471.132812 103.1875 469.636719 100.058594 470.726562 97.203125 C 471.679688 94.480469 474.808594 92.984375 477.664062 94.070312 L 478.347656 94.34375 C 481.066406 95.296875 482.5625 98.425781 481.613281 101.285156 C 480.523438 103.324219 478.480469 104.6875 476.304688 104.6875 Z M 286.480469 100.332031 C 284.167969 100.332031 282.125 98.835938 281.308594 96.523438 C 280.359375 93.664062 281.992188 90.671875 284.847656 89.855469 L 285.527344 89.71875 C 288.386719 88.765625 291.378906 90.398438 292.195312 93.253906 C 293.148438 96.113281 291.515625 99.105469 288.660156 99.921875 L 287.976562 100.058594 C 287.570312 100.332031 287.027344 100.332031 286.480469 100.332031 Z M 450.042969 96.523438 C 449.632812 96.523438 449.089844 96.523438 448.683594 96.386719 L 448 96.25 C 445.144531 95.570312 443.375 92.574219 444.191406 89.71875 C 444.871094 86.859375 447.867188 85.089844 450.722656 85.90625 L 451.402344 86.042969 C 454.261719 86.859375 456.03125 89.71875 455.214844 92.574219 C 454.53125 94.886719 452.355469 96.523438 450.042969 96.523438 Z M 313.015625 93.390625 C 310.566406 93.390625 308.390625 91.621094 307.84375 89.171875 C 307.164062 86.316406 309.070312 83.457031 311.925781 82.777344 L 312.472656 82.640625 C 315.328125 81.960938 318.324219 83.867188 318.867188 86.722656 C 319.546875 89.582031 317.640625 92.4375 314.785156 93.121094 L 314.105469 93.253906 C 313.832031 93.253906 313.425781 93.390625 313.015625 93.390625 Z M 423.101562 90.671875 C 422.828125 90.671875 422.554688 90.671875 422.285156 90.535156 L 421.601562 90.398438 C 418.746094 89.988281 416.703125 87.132812 417.113281 84.273438 C 417.65625 81.417969 420.378906 79.375 423.234375 79.785156 L 423.917969 79.921875 C 426.773438 80.464844 428.816406 83.1875 428.269531 86.042969 C 428 88.902344 425.683594 90.671875 423.101562 90.671875 Z M 340.230469 88.902344 C 337.507812 88.902344 335.195312 86.859375 334.921875 84.140625 C 334.515625 81.144531 336.691406 78.558594 339.6875 78.152344 L 340.367188 78.015625 C 343.359375 77.605469 345.945312 79.785156 346.355469 82.777344 C 346.761719 85.773438 344.585938 88.355469 341.589844 88.765625 L 340.910156 88.902344 C 340.640625 88.765625 340.367188 88.902344 340.230469 88.902344 Z M 395.75 87.539062 C 395.613281 87.539062 395.476562 87.539062 395.339844 87.539062 L 394.660156 87.539062 C 391.667969 87.40625 389.488281 84.820312 389.625 81.824219 C 389.761719 78.832031 392.347656 76.65625 395.339844 76.789062 L 396.019531 76.789062 C 399.015625 76.925781 401.191406 79.511719 401.054688 82.503906 C 400.917969 85.363281 398.605469 87.539062 395.75 87.539062 Z M 367.582031 86.996094 C 364.722656 86.996094 362.273438 84.683594 362.273438 81.6875 C 362.136719 78.695312 364.589844 76.246094 367.445312 76.109375 L 368.125 76.109375 C 370.984375 75.972656 373.570312 78.421875 373.570312 81.28125 C 373.703125 84.273438 371.253906 86.722656 368.398438 86.859375 L 367.582031 86.996094 C 367.71875 86.996094 367.71875 86.996094 367.582031 86.996094 Z M 367.582031 86.996094 " fill-opacity="1" fill-rule="nonzero"/><g clip-path="url(#60be8a1b10)"><path fill="#692c2c" d="M 379.773438 657.28125 C 226.460938 657.28125 102.269531 532.230469 102.269531 379.773438 C 102.269531 227.316406 226.460938 102.269531 379.773438 102.269531 C 533.089844 102.269531 657.28125 226.460938 657.28125 379.773438 C 657.28125 533.089844 532.230469 657.28125 379.773438 657.28125 Z M 379.773438 119.398438 C 235.882812 119.398438 119.398438 235.882812 119.398438 379.773438 C 119.398438 523.667969 235.882812 640.152344 379.773438 640.152344 C 523.667969 640.152344 640.152344 523.667969 640.152344 379.773438 C 640.152344 235.882812 522.808594 119.398438 379.773438 119.398438 Z M 379.773438 119.398438 " fill-opacity="1" fill-rule="nonzero"/></g><g clip-path="url(#d59a987b4b)"><path fill="#692c2c" d="M 375 597.449219 C 252.375 597.449219 152.546875 497.621094 152.546875 375 C 152.546875 252.375 252.375 152.546875 375 152.546875 C 497.621094 152.546875 597.449219 252.375 597.449219 375 C 597.449219 497.621094 497.621094 597.449219 375 597.449219 Z M 375 155.835938 C 254.128906 155.835938 155.835938 254.128906 155.835938 375 C 155.835938 495.867188 254.128906 594.164062 375 594.164062 C 495.867188 594.164062 594.164062 495.867188 594.164062 375 C 594.164062 254.128906 495.867188 155.835938 375 155.835938 Z M 375 155.835938 " fill-opacity="1" fill-rule="nonzero"/></g></svg>