<svg xmlns="http://www.w3.org/2000/svg" xmlns:xlink="http://www.w3.org/1999/xlink" width="1000" zoomAndPan="magnify" viewBox="0 0 750 749.999995" height="1000" preserveAspectRatio="xMidYMid meet" version="1.0"><defs><clipPath id="92ab6296e0"><path d="M 22.371094 22.371094 L 727.371094 22.371094 L 727.371094 727.371094 L 22.371094 727.371094 Z M 22.371094 22.371094 " clip-rule="nonzero"/></clipPath></defs><g clip-path="url(#92ab6296e0)"><path fill="#9a3b3b" d="M 374.996094 22.371094 C 180.488281 22.371094 22.371094 180.628906 22.371094 374.996094 C 22.371094 569.503906 180.488281 727.617188 374.996094 727.617188 C 569.363281 727.617188 727.617188 569.503906 727.617188 374.996094 C 727.617188 180.628906 569.363281 22.371094 374.996094 22.371094 Z M 374.996094 700.113281 C 195.722656 700.113281 49.878906 554.269531 49.878906 374.996094 C 49.878906 195.722656 195.722656 49.878906 374.996094 49.878906 C 554.269531 49.878906 700.113281 195.722656 700.113281 374.996094 C 700.113281 554.269531 554.269531 700.113281 374.996094 700.113281 Z M 374.996094 700.113281 " fill-opacity="1" fill-rule="nonzero"/></g><path fill="#9a3b3b" d="M 374.996094 68.214844 C 205.878906 68.214844 68.214844 205.878906 68.214844 374.996094 C 68.214844 544.113281 205.878906 681.777344 374.996094 681.777344 C 544.113281 681.777344 681.777344 544.113281 681.777344 374.996094 C 681.777344 205.878906 544.113281 68.214844 374.996094 68.214844 Z M 374.996094 68.214844 " fill-opacity="1" fill-rule="nonzero"/></svg>