<svg xmlns="http://www.w3.org/2000/svg" xmlns:xlink="http://www.w3.org/1999/xlink" width="1000" zoomAndPan="magnify" viewBox="0 0 750 749.999995" height="1000" preserveAspectRatio="xMidYMid meet" version="1.0"><defs><clipPath id="26538f9fe9"><path d="M 22.371094 22.371094 L 727.371094 22.371094 L 727.371094 727.371094 L 22.371094 727.371094 Z M 22.371094 22.371094 " clip-rule="nonzero"/></clipPath><clipPath id="886f110ae5"><path d="M 353 199.300781 L 400 199.300781 L 400 246 L 353 246 Z M 353 199.300781 " clip-rule="nonzero"/></clipPath></defs><g clip-path="url(#26538f9fe9)"><path fill="#9a3b3b" d="M 374.996094 22.371094 C 180.488281 22.371094 22.371094 180.628906 22.371094 374.996094 C 22.371094 569.503906 180.488281 727.617188 374.996094 727.617188 C 569.363281 727.617188 727.617188 569.503906 727.617188 374.996094 C 727.617188 180.628906 569.363281 22.371094 374.996094 22.371094 Z M 374.996094 700.113281 C 195.722656 700.113281 49.878906 554.269531 49.878906 374.996094 C 49.878906 195.722656 195.722656 49.878906 374.996094 49.878906 C 554.269531 49.878906 700.113281 195.722656 700.113281 374.996094 C 700.113281 554.269531 554.269531 700.113281 374.996094 700.113281 Z M 374.996094 700.113281 " fill-opacity="1" fill-rule="nonzero"/></g><path fill="#9a3b3b" d="M 374.996094 68.214844 C 205.878906 68.214844 68.214844 205.878906 68.214844 374.996094 C 68.214844 544.113281 205.878906 681.777344 374.996094 681.777344 C 544.113281 681.777344 681.777344 544.113281 681.777344 374.996094 C 681.777344 205.878906 544.113281 68.214844 374.996094 68.214844 Z M 374.996094 68.214844 " fill-opacity="1" fill-rule="nonzero"/><path fill="#ffde59" d="M 549.382812 521.890625 C 560.472656 477.394531 606.015625 307.964844 597.128906 299.964844 C 582.910156 287.160156 530.996094 353.929688 492.222656 376.367188 C 452.777344 399.15625 401.179688 235.628906 375.207031 230.832031 C 349.230469 235.628906 297.632812 399.15625 258.191406 376.367188 C 219.398438 353.929688 167.5 287.160156 153.277344 299.964844 C 144.390625 307.964844 189.9375 477.394531 201.023438 521.890625 L 549.382812 521.890625 " fill-opacity="1" fill-rule="nonzero"/><path fill="#c85103" d="M 317.445312 429.6875 C 312.855469 425.476562 312.523438 418.34375 316.71875 413.730469 L 366.273438 359.496094 C 370.488281 354.882812 377.644531 354.554688 382.253906 358.765625 L 435.097656 407.042969 C 439.6875 411.234375 440.019531 418.386719 435.800781 423 L 386.269531 477.234375 C 382.054688 481.847656 374.902344 482.175781 370.289062 477.964844 L 317.445312 429.6875 " fill-opacity="1" fill-rule="nonzero"/><path fill="#efca30" d="M 597.128906 299.964844 C 582.910156 287.160156 530.996094 353.929688 492.222656 376.367188 C 490.628906 377.285156 489.015625 377.871094 487.382812 378.207031 C 472.710938 406.269531 453.824219 432.199219 431.15625 454.871094 C 402.464844 483.5625 368.550781 506.203125 331.6875 521.890625 L 549.382812 521.890625 C 560.472656 477.394531 606.015625 307.964844 597.128906 299.964844 " fill-opacity="1" fill-rule="nonzero"/><path fill="#fd914c" d="M 564.851562 540.832031 C 563.652344 546.296875 561.300781 550.699219 556.582031 550.699219 L 195.421875 550.699219 C 190.707031 550.699219 188.785156 547.546875 186.886719 542.160156 L 179.953125 508.023438 C 179.953125 503.304688 183.765625 499.484375 188.484375 499.484375 L 564.050781 499.484375 C 568.773438 499.484375 572.585938 503.304688 572.585938 508.023438 L 564.851562 540.832031 " fill-opacity="1" fill-rule="nonzero"/><path fill="#fd914c" d="M 337.171875 425.886719 C 334.121094 423.089844 333.898438 418.347656 336.6875 415.28125 L 369.625 379.234375 C 372.421875 376.167969 377.179688 375.949219 380.246094 378.75 L 415.367188 410.835938 C 418.417969 413.625 418.640625 418.378906 415.835938 421.445312 L 382.914062 457.488281 C 380.113281 460.558594 375.359375 460.773438 372.292969 457.976562 L 337.171875 425.886719 " fill-opacity="1" fill-rule="nonzero"/><path fill="#fd914c" d="M 177.46875 295.347656 C 177.46875 308.117188 167.117188 318.46875 154.34375 318.46875 C 141.574219 318.46875 131.222656 308.117188 131.222656 295.347656 C 131.222656 282.578125 141.574219 272.222656 154.34375 272.222656 C 167.117188 272.222656 177.46875 282.578125 177.46875 295.347656 " fill-opacity="1" fill-rule="nonzero"/><g clip-path="url(#886f110ae5)"><path fill="#fd914c" d="M 399.394531 222.429688 C 399.394531 235.195312 389.039062 245.554688 376.269531 245.554688 C 363.5 245.554688 353.144531 235.195312 353.144531 222.429688 C 353.144531 209.660156 363.5 199.308594 376.269531 199.308594 C 389.039062 199.308594 399.394531 209.660156 399.394531 222.429688 " fill-opacity="1" fill-rule="nonzero"/></g><path fill="#fd914c" d="M 618.816406 295.347656 C 618.816406 308.117188 608.476562 318.472656 595.710938 318.472656 C 582.941406 318.472656 572.585938 308.117188 572.585938 295.347656 C 572.585938 282.578125 582.941406 272.226562 595.710938 272.226562 C 608.476562 272.226562 618.816406 282.578125 618.816406 295.347656 " fill-opacity="1" fill-rule="nonzero"/><path fill="#ffffff" d="M 242.835938 427.988281 C 246.757812 415.382812 217.007812 401.113281 204.261719 357.484375 C 198.242188 336.878906 169.96875 381.816406 194.828125 413.878906 C 213.921875 438.492188 239.628906 438.324219 242.835938 427.988281 " fill-opacity="1" fill-rule="nonzero"/></svg>